<svg id="visual" viewBox="0 0 1920 1080" width="1920" height="1080" xmlns="http://www.w3.org/2000/svg" xmlns:xlink="http://www.w3.org/1999/xlink" version="1.1"><rect x="0" y="0" width="1920" height="1080" fill="#4D1473"></rect><path d="M0 678L274 727L549 696L823 761L1097 783L1371 680L1646 661L1920 808L1920 1081L1646 1081L1371 1081L1097 1081L823 1081L549 1081L274 1081L0 1081Z" fill="#3b0e59"></path><path d="M0 738L274 711L549 717L823 793L1097 759L1371 833L1646 803L1920 784L1920 1081L1646 1081L1371 1081L1097 1081L823 1081L549 1081L274 1081L0 1081Z" fill="#300d4c"></path><path d="M0 801L274 894L549 797L823 843L1097 860L1371 807L1646 854L1920 892L1920 1081L1646 1081L1371 1081L1097 1081L823 1081L549 1081L274 1081L0 1081Z" fill="#260c3f"></path><path d="M0 949L274 887L549 947L823 938L1097 886L1371 975L1646 951L1920 954L1920 1081L1646 1081L1371 1081L1097 1081L823 1081L549 1081L274 1081L0 1081Z" fill="#1d0932"></path><path d="M0 1014L274 973L549 958L823 979L1097 985L1371 957L1646 954L1920 978L1920 1081L1646 1081L1371 1081L1097 1081L823 1081L549 1081L274 1081L0 1081Z" fill="#170126"></path></svg>